<svg xmlns="http://www.w3.org/2000/svg" width="1800" height="1840" viewBox="0 0 1800 1840" role="img" aria-labelledby="title desc">
  <title id="title">Generic W8A16 FFN schedule, SmolLM2-135M instance</title>
  <desc id="desc">Cycle-accurate FTLPU schedule for gate and up projection, SwiGLU, cross-hemisphere copy, and down projection.</desc>
  <defs>
    <marker id="arrow" markerWidth="10" markerHeight="8" refX="9" refY="4" orient="auto">
      <path d="M0,0 L10,4 L0,8 Z" fill="#4a5560"/>
    </marker>
    <style>
      text { font-family: "Segoe UI", Arial, sans-serif; fill: #17212b; letter-spacing: 0; }
      .title { font-size: 30px; font-weight: 700; }
      .subtitle { font-size: 15px; fill: #5d6874; }
      .section { font-size: 20px; font-weight: 700; fill: #26313c; }
      .row { font-size: 15px; font-weight: 600; fill: #26313c; }
      .bar { font-size: 12px; font-weight: 600; fill: #17212b; }
      .small { font-size: 11px; fill: #4e5965; }
      .note { font-size: 13px; fill: #3e4a56; }
      .grid { stroke: #dde3e8; stroke-width: 1; }
      .axis { stroke: #4a5560; stroke-width: 2; stroke-dasharray: 9 7; }
      .lane { fill: #fafbfc; stroke: #d8dee5; stroke-width: 1; }
      .phase { fill: #f7f9fb; stroke: #c9d1d9; stroke-width: 1.2; }
      .memr { fill: #90c9a8; stroke: #416b54; stroke-width: 1.2; }
      .memw { fill: #f2cf81; stroke: #80672f; stroke-width: 1.2; }
      .mxm0 { fill: #91b8e8; stroke: #41678f; stroke-width: 1.2; }
      .mxm1 { fill: #b1a7df; stroke: #5e568d; stroke-width: 1.2; }
      .vxm { fill: #ed9c72; stroke: #8a4e31; stroke-width: 1.2; }
      .acc0 { fill: #dca2c2; stroke: #814f6b; stroke-width: 1.2; }
      .acc1 { fill: #efb07c; stroke: #975f31; stroke-width: 1.2; }
      .copy { fill: #76c7c0; stroke: #34736e; stroke-width: 1.2; }
      .quiet { fill: #eef1f4; stroke: #aab4be; stroke-width: 1.1; }
    </style>
  </defs>

  <rect width="1800" height="1840" fill="#ffffff"/>
  <text x="42" y="48" class="title">Generic W8A16 FFN Pipeline: SmolLM2-135M Instance</text>
  <text x="42" y="76" class="subtitle">X[32,576] fp16, gate/up/down int8, hidden=1536, output[32,576] fp16; generated by FTLPU Stream -&gt; Schedule lowering</text>

  <text x="42" y="120" class="section">1. End-to-end measured schedule</text>
  <line x1="390" y1="113" x2="1730" y2="113" class="axis" marker-end="url(#arrow)"/>
  <text x="1740" y="119" class="row">Cycle</text>
  <g transform="translate(250,142)">
    <rect x="0" y="0" width="711" height="82" rx="5" class="mxm0"/>
    <rect x="715" y="0" width="34" height="82" class="vxm"/>
    <rect x="752" y="0" width="34" height="82" class="copy"/>
    <rect x="790" y="0" width="690" height="82" rx="5" class="mxm1"/>
    <text x="355" y="24" text-anchor="middle" class="row">Gate + up projection</text>
    <text x="355" y="44" text-anchor="middle" class="small">24 output pairs x 18 K blocks; issue interval 38 cycles</text>
    <text x="732" y="27" text-anchor="middle" class="small">SwiGLU</text>
    <text x="732" y="44" text-anchor="middle" class="small">tail</text>
    <text x="732" y="61" text-anchor="middle" class="small">16,469</text>
    <text x="769" y="42" text-anchor="middle" class="small">copy</text>
    <text x="1135" y="27" text-anchor="middle" class="row">Down projection</text>
    <text x="1135" y="50" text-anchor="middle" class="small">9 output pairs x 48 reduction blocks</text>
    <text x="1135" y="68" text-anchor="middle" class="small">38-cycle K blocks; pair boundary derived from MEM conflicts</text>
  </g>
  <line x1="250" y1="236" x2="250" y2="248" class="grid"/>
  <line x1="282" y1="236" x2="282" y2="248" class="grid"/>
  <line x1="963" y1="236" x2="963" y2="248" class="grid"/>
  <line x1="965" y1="236" x2="965" y2="248" class="grid"/>
  <line x1="998" y1="236" x2="998" y2="248" class="grid"/>
  <line x1="1001" y1="236" x2="1001" y2="248" class="grid"/>
  <line x1="1730" y1="236" x2="1730" y2="248" class="grid"/>
  <text x="250" y="263" text-anchor="middle" class="small">0</text>
  <text x="958" y="278" text-anchor="end" class="small">projection complete 16,468</text>
  <text x="970" y="263" text-anchor="start" class="small">SwiGLU tail 16,469..16,532</text>
  <text x="1006" y="278" text-anchor="start" class="small">copy 16,556; down compute 17,382</text>
  <text x="1730" y="263" text-anchor="middle" class="small">34,270</text>
  <line x1="982" y1="224" x2="982" y2="281" stroke="#34736e"/>
  <text x="990" y="296" class="small">west -&gt; east hidden copy 16,556..17,323</text>

  <text x="42" y="340" class="section">2. Current compiler schedule: conservative SwiGLU tail</text>
  <text x="42" y="363" class="subtitle">Measured Schedule IR, one hemisphere shown. All 18 projection partials, including P17, accumulate to SRAM. SwiGLU starts only after all projection pairs complete.</text>
  <g transform="translate(0,410)">
    <line x1="250" y1="-22" x2="1730" y2="-22" class="axis"/>
    <text x="1740" y="-16" class="row">cycle</text>
    <line x1="250" y1="0" x2="250" y2="546" class="grid"/>
    <line x1="490" y1="0" x2="490" y2="546" class="grid"/>
    <line x1="730" y1="0" x2="730" y2="546" class="grid"/>
    <line x1="970" y1="0" x2="970" y2="546" class="grid"/>
    <line x1="1210" y1="0" x2="1210" y2="546" class="grid"/>
    <line x1="1450" y1="0" x2="1450" y2="546" class="grid"/>
    <line x1="1690" y1="0" x2="1690" y2="546" class="grid"/>
    <text x="250" y="-30" text-anchor="middle" class="small">0</text>
    <text x="490" y="-30" text-anchor="middle" class="small">125</text>
    <text x="730" y="-30" text-anchor="middle" class="small">250</text>
    <text x="970" y="-30" text-anchor="middle" class="small">375</text>
    <text x="1210" y="-30" text-anchor="middle" class="small">500</text>
    <text x="1450" y="-30" text-anchor="middle" class="small">625</text>
    <text x="1690" y="-30" text-anchor="middle" class="small">750</text>

    <rect x="190" y="0" width="1560" height="46" class="lane"/>
    <rect x="190" y="50" width="1560" height="46" class="lane"/>
    <rect x="190" y="100" width="1560" height="46" class="lane"/>
    <rect x="190" y="150" width="1560" height="46" class="lane"/>
    <rect x="190" y="200" width="1560" height="46" class="lane"/>
    <rect x="190" y="250" width="1560" height="46" class="lane"/>
    <rect x="190" y="300" width="1560" height="46" class="lane"/>
    <rect x="190" y="350" width="1560" height="46" class="lane"/>
    <rect x="190" y="400" width="1560" height="46" class="lane"/>
    <rect x="190" y="450" width="1560" height="46" class="lane"/>
    <text x="32" y="29" class="row">MEM weight read</text>
    <text x="32" y="79" class="row">VXM dequant</text>
    <text x="32" y="129" class="row">MXM IW load</text>
    <text x="32" y="179" class="row">MXM gate</text>
    <text x="32" y="229" class="row">MXM up</text>
    <text x="32" y="279" class="row">MEM ACC gate</text>
    <text x="32" y="329" class="row">MEM ACC up</text>
    <text x="32" y="379" class="row">Global tail boundary</text>
    <text x="32" y="429" class="row">VXM SwiGLU</text>
    <text x="32" y="479" class="row">MEM hidden write</text>

    <defs>
    <g id="weight-cadence">
      <rect x="252" y="0" width="38" height="32" class="memr"/><rect x="325" y="0" width="38" height="32" class="memr"/><rect x="398" y="0" width="38" height="32" class="memr"/><rect x="471" y="0" width="38" height="32" class="memr"/><rect x="544" y="0" width="38" height="32" class="memr"/><rect x="617" y="0" width="38" height="32" class="memr"/><rect x="690" y="0" width="38" height="32" class="memr"/><rect x="763" y="0" width="38" height="32" class="memr"/><rect x="836" y="0" width="38" height="32" class="memr"/><rect x="909" y="0" width="38" height="32" class="memr"/><rect x="982" y="0" width="38" height="32" class="memr"/><rect x="1055" y="0" width="38" height="32" class="memr"/><rect x="1128" y="0" width="38" height="32" class="memr"/><rect x="1201" y="0" width="38" height="32" class="memr"/><rect x="1274" y="0" width="38" height="32" class="memr"/><rect x="1347" y="0" width="38" height="32" class="memr"/><rect x="1420" y="0" width="38" height="32" class="memr"/><rect x="1493" y="0" width="38" height="32" class="memr"/>
    </g>
    <g id="dequant-cadence">
      <rect x="270" y="0" width="31" height="32" class="vxm"/><rect x="343" y="0" width="31" height="32" class="vxm"/><rect x="416" y="0" width="31" height="32" class="vxm"/><rect x="489" y="0" width="31" height="32" class="vxm"/><rect x="562" y="0" width="31" height="32" class="vxm"/><rect x="635" y="0" width="31" height="32" class="vxm"/><rect x="708" y="0" width="31" height="32" class="vxm"/><rect x="781" y="0" width="31" height="32" class="vxm"/><rect x="854" y="0" width="31" height="32" class="vxm"/><rect x="927" y="0" width="31" height="32" class="vxm"/><rect x="1000" y="0" width="31" height="32" class="vxm"/><rect x="1073" y="0" width="31" height="32" class="vxm"/><rect x="1146" y="0" width="31" height="32" class="vxm"/><rect x="1219" y="0" width="31" height="32" class="vxm"/><rect x="1292" y="0" width="31" height="32" class="vxm"/><rect x="1365" y="0" width="31" height="32" class="vxm"/><rect x="1438" y="0" width="31" height="32" class="vxm"/><rect x="1511" y="0" width="31" height="32" class="vxm"/>
    </g>
    <g id="load-cadence">
      <rect x="296" y="0" width="31" height="32" class="mxm0"/><rect x="369" y="0" width="31" height="32" class="mxm0"/><rect x="442" y="0" width="31" height="32" class="mxm0"/><rect x="515" y="0" width="31" height="32" class="mxm0"/><rect x="588" y="0" width="31" height="32" class="mxm0"/><rect x="661" y="0" width="31" height="32" class="mxm0"/><rect x="734" y="0" width="31" height="32" class="mxm0"/><rect x="807" y="0" width="31" height="32" class="mxm0"/><rect x="880" y="0" width="31" height="32" class="mxm0"/><rect x="953" y="0" width="31" height="32" class="mxm0"/><rect x="1026" y="0" width="31" height="32" class="mxm0"/><rect x="1099" y="0" width="31" height="32" class="mxm0"/><rect x="1172" y="0" width="31" height="32" class="mxm0"/><rect x="1245" y="0" width="31" height="32" class="mxm0"/><rect x="1318" y="0" width="31" height="32" class="mxm0"/><rect x="1391" y="0" width="31" height="32" class="mxm0"/><rect x="1464" y="0" width="31" height="32" class="mxm0"/><rect x="1537" y="0" width="31" height="32" class="mxm0"/>
    </g>
    <g id="compute-cadence">
      <rect x="331" y="0" width="61" height="32"/><rect x="404" y="0" width="61" height="32"/><rect x="477" y="0" width="61" height="32"/><rect x="550" y="0" width="61" height="32"/><rect x="623" y="0" width="61" height="32"/><rect x="696" y="0" width="61" height="32"/><rect x="769" y="0" width="61" height="32"/><rect x="842" y="0" width="61" height="32"/><rect x="915" y="0" width="61" height="32"/><rect x="988" y="0" width="61" height="32"/><rect x="1061" y="0" width="61" height="32"/><rect x="1134" y="0" width="61" height="32"/><rect x="1207" y="0" width="61" height="32"/><rect x="1280" y="0" width="61" height="32"/><rect x="1353" y="0" width="61" height="32"/><rect x="1426" y="0" width="61" height="32"/><rect x="1499" y="0" width="61" height="32"/><rect x="1572" y="0" width="61" height="32"/>
    </g>
    <g id="gate-acc-cadence">
      <rect x="343" y="0" width="61" height="32" class="acc0"/><rect x="416" y="0" width="61" height="32" class="acc0"/><rect x="489" y="0" width="61" height="32" class="acc0"/><rect x="562" y="0" width="61" height="32" class="acc0"/><rect x="635" y="0" width="61" height="32" class="acc0"/><rect x="708" y="0" width="61" height="32" class="acc0"/><rect x="781" y="0" width="61" height="32" class="acc0"/><rect x="854" y="0" width="61" height="32" class="acc0"/><rect x="927" y="0" width="61" height="32" class="acc0"/><rect x="1000" y="0" width="61" height="32" class="acc0"/><rect x="1073" y="0" width="61" height="32" class="acc0"/><rect x="1146" y="0" width="61" height="32" class="acc0"/><rect x="1219" y="0" width="61" height="32" class="acc0"/><rect x="1292" y="0" width="61" height="32" class="acc0"/><rect x="1365" y="0" width="61" height="32" class="acc0"/><rect x="1438" y="0" width="61" height="32" class="acc0"/><rect x="1511" y="0" width="61" height="32" class="acc0"/><rect x="1584" y="0" width="61" height="32" class="acc0"/>
    </g>
    <g id="up-acc-cadence">
      <rect x="341" y="0" width="61" height="32" class="acc1"/><rect x="414" y="0" width="61" height="32" class="acc1"/><rect x="487" y="0" width="61" height="32" class="acc1"/><rect x="560" y="0" width="61" height="32" class="acc1"/><rect x="633" y="0" width="61" height="32" class="acc1"/><rect x="706" y="0" width="61" height="32" class="acc1"/><rect x="779" y="0" width="61" height="32" class="acc1"/><rect x="852" y="0" width="61" height="32" class="acc1"/><rect x="925" y="0" width="61" height="32" class="acc1"/><rect x="998" y="0" width="61" height="32" class="acc1"/><rect x="1071" y="0" width="61" height="32" class="acc1"/><rect x="1144" y="0" width="61" height="32" class="acc1"/><rect x="1217" y="0" width="61" height="32" class="acc1"/><rect x="1290" y="0" width="61" height="32" class="acc1"/><rect x="1363" y="0" width="61" height="32" class="acc1"/><rect x="1436" y="0" width="61" height="32" class="acc1"/><rect x="1509" y="0" width="61" height="32" class="acc1"/><rect x="1582" y="0" width="61" height="32" class="acc1"/>
    </g>
    </defs>
    <use href="#weight-cadence" transform="translate(0,7)"/>
    <use href="#dequant-cadence" transform="translate(0,57)"/>
    <use href="#load-cadence" transform="translate(0,107)"/>
    <use href="#compute-cadence" class="mxm0" transform="translate(0,157)"/>
    <use href="#compute-cadence" class="mxm1" transform="translate(0,207)"/>
    <use href="#gate-acc-cadence" transform="translate(0,257)"/>
    <use href="#up-acc-cadence" transform="translate(0,307)"/>
    <text x="361" y="178" text-anchor="middle" class="bar">KB0</text><text x="1602" y="178" text-anchor="middle" class="bar">KB17</text>
    <text x="361" y="228" text-anchor="middle" class="bar">KB0</text><text x="1602" y="228" text-anchor="middle" class="bar">KB17</text>
    <text x="995" y="548" text-anchor="middle" class="small">KB0..KB17: 18 K=32 blocks, each begins 38 cycles after the previous block.</text>
    <text x="1615" y="278" text-anchor="middle" class="small">P17 -&gt; SRAM</text>
    <text x="1613" y="328" text-anchor="middle" class="small">P17 -&gt; SRAM</text>
    <text x="1580" y="378" text-anchor="middle" class="small">... 23 remaining projection pairs ...</text>
    <rect x="270" y="407" width="1430" height="32" rx="3" class="quiet"/><text x="985" y="428" text-anchor="middle" class="bar">No SwiGLU is issued in this local 0..750 projection trace.</text>
    <rect x="270" y="457" width="1430" height="32" rx="3" class="phase"/><text x="985" y="478" text-anchor="middle" class="bar">After projection pair 23: accumulator read -&gt; first Swish at global cycle 16,469 -&gt; hidden write.</text>
    <text x="270" y="566" class="small">This local 0..750 view shows the first N-pair only. P17 writes local accumulator SRAM; no fixed SwiGLU overlap batch is emitted.</text>
    <text x="270" y="580" class="small">The global timeline above is authoritative for the tail: all 24 projection pairs finish first, then local SRAM is read through W0..W7 and SwiGLU begins at 16,469.</text>
  </g>

  <text x="42" y="1005" class="section">3. Expanded SwiGLU pointwise pipeline</text>
  <text x="42" y="1028" class="subtitle">One hidden row / hemisphere event. VXM computes (gate * sigmoid(gate)) * up without materializing a sigmoid tensor.</text>
  <g transform="translate(0,1070)">
    <line x1="250" y1="-22" x2="1730" y2="-22" class="axis" marker-end="url(#arrow)"/>
    <text x="1740" y="-16" class="row">cycle</text>
    <line x1="250" y1="0" x2="250" y2="246" class="grid"/>
    <line x1="430" y1="0" x2="430" y2="246" class="grid"/>
    <line x1="610" y1="0" x2="610" y2="246" class="grid"/>
    <line x1="790" y1="0" x2="790" y2="246" class="grid"/>
    <line x1="970" y1="0" x2="970" y2="246" class="grid"/>
    <line x1="1150" y1="0" x2="1150" y2="246" class="grid"/>
    <line x1="1330" y1="0" x2="1330" y2="246" class="grid"/>
    <line x1="1600" y1="0" x2="1600" y2="246" class="grid"/>
    <text x="250" y="-30" text-anchor="middle" class="small">t</text>
    <text x="430" y="-30" text-anchor="middle" class="small">t+1</text>
    <text x="610" y="-30" text-anchor="middle" class="small">t+2</text>
    <text x="790" y="-30" text-anchor="middle" class="small">t+3</text>
    <text x="970" y="-30" text-anchor="middle" class="small">t+4</text>
    <text x="1150" y="-30" text-anchor="middle" class="small">t+5</text>
    <text x="1330" y="-30" text-anchor="middle" class="small">t+6</text>
    <text x="1600" y="-30" text-anchor="middle" class="small">t+13/14</text>

    <rect x="190" y="0" width="1560" height="38" class="lane"/>
    <rect x="190" y="42" width="1560" height="38" class="lane"/>
    <rect x="190" y="84" width="1560" height="38" class="lane"/>
    <rect x="190" y="126" width="1560" height="38" class="lane"/>
    <rect x="190" y="168" width="1560" height="38" class="lane"/>
    <text x="32" y="25" class="row">ACC / stream input</text>
    <text x="32" y="67" class="row">sigmoid path</text>
    <text x="32" y="109" class="row">product path</text>
    <text x="32" y="151" class="row">merge / cast</text>
    <text x="32" y="193" class="row">MEM hidden</text>

    <rect x="250" y="5" width="165" height="28" rx="4" class="acc0"/><text x="332" y="24" text-anchor="middle" class="bar">gate + up FP32</text>
    <rect x="250" y="47" width="165" height="28" rx="4" class="vxm"/><text x="332" y="66" text-anchor="middle" class="bar">-gate</text>
    <rect x="430" y="47" width="165" height="28" rx="4" class="vxm"/><text x="512" y="66" text-anchor="middle" class="bar">exp(-gate)</text>
    <rect x="610" y="47" width="165" height="28" rx="4" class="vxm"/><text x="692" y="66" text-anchor="middle" class="bar">1 + exp(-gate)</text>
    <rect x="790" y="47" width="165" height="28" rx="4" class="vxm"/><text x="872" y="66" text-anchor="middle" class="bar">reciprocal</text>
    <rect x="250" y="89" width="165" height="28" rx="4" class="acc1"/><text x="332" y="108" text-anchor="middle" class="bar">gate * up</text>
    <rect x="430" y="89" width="525" height="28" rx="4" class="quiet"/><text x="692" y="108" text-anchor="middle" class="bar">VXM pass-through keeps gate * up aligned</text>
    <rect x="970" y="131" width="165" height="28" rx="4" class="vxm"/><text x="1052" y="150" text-anchor="middle" class="bar">sigmoid * gate*up</text>
    <rect x="1150" y="131" width="165" height="28" rx="4" class="vxm"/><text x="1232" y="150" text-anchor="middle" class="bar">FP32 -&gt; FP16</text>
    <rect x="1330" y="173" width="360" height="28" rx="4" class="memw"/><text x="1510" y="192" text-anchor="middle" class="bar">write local slices 21/22/23/29 at t+11 / t+13</text>
    <text x="250" y="230" class="note">sigmoid(gate) = 1 / (1 + exp(-gate)); final value = sigmoid(gate) * (gate * up) = SiLU(gate) * up.</text>
  </g>

  <text x="42" y="1340" class="section">4. Expanded final down-reduction block</text>
  <text x="42" y="1363" class="subtitle">The first 47 reductions retain FP32 in MEM; reduction 47 changes ACC destination to stream and casts the completed result to FP16.</text>
  <g transform="translate(0,1413)">
    <line x1="250" y1="-22" x2="1730" y2="-22" class="axis" marker-end="url(#arrow)"/>
    <text x="1740" y="-16" class="row">T + cycle</text>
    <line x1="250" y1="0" x2="250" y2="326" class="grid"/>
    <line x1="579" y1="0" x2="579" y2="326" class="grid"/>
    <line x1="908" y1="0" x2="908" y2="326" class="grid"/>
    <line x1="1237" y1="0" x2="1237" y2="326" class="grid"/>
    <line x1="1566" y1="0" x2="1566" y2="326" class="grid"/>
    <line x1="1730" y1="0" x2="1730" y2="326" class="grid"/>
    <text x="250" y="-30" text-anchor="middle" class="small">0</text><text x="579" y="-30" text-anchor="middle" class="small">20</text>
    <text x="908" y="-30" text-anchor="middle" class="small">40</text><text x="1237" y="-30" text-anchor="middle" class="small">60</text>
    <text x="1566" y="-30" text-anchor="middle" class="small">80</text><text x="1730" y="-30" text-anchor="middle" class="small">90</text>
    <rect x="190" y="0" width="1560" height="46" class="lane"/><rect x="190" y="50" width="1560" height="46" class="lane"/>
    <rect x="190" y="100" width="1560" height="46" class="lane"/><rect x="190" y="150" width="1560" height="46" class="lane"/>
    <rect x="190" y="200" width="1560" height="46" class="lane"/><rect x="190" y="250" width="1560" height="46" class="lane"/>
    <text x="32" y="29" class="row">MEM / VXM W</text><text x="32" y="79" class="row">MXM0 / 1 load</text>
    <text x="32" y="129" class="row">MEM hidden read</text><text x="32" y="179" class="row">MXM0 / 1 compute</text>
    <text x="32" y="229" class="row">ACC0 / ACC1</text><text x="32" y="279" class="row">VXM / MEM result</text>
    <rect x="266" y="7" width="313" height="32" rx="4" class="vxm"/><text x="422" y="28" text-anchor="middle" class="bar">down W8 read + dequant</text>
    <rect x="645" y="57" width="198" height="32" rx="4" class="mxm0"/><text x="744" y="78" text-anchor="middle" class="bar">2 x 16-stream IW</text>
    <rect x="727" y="107" width="526" height="32" rx="4" class="memr"/><text x="990" y="128" text-anchor="middle" class="bar">hidden FP16, local slices 21/22/23/29, 32 pulses</text>
    <rect x="941" y="157" width="510" height="32" rx="4" class="mxm1"/><text x="1196" y="178" text-anchor="middle" class="bar">MXM0 + MXM1, cycles T+42..73</text>
    <rect x="1023" y="207" width="526" height="32" rx="4" class="acc0"/><text x="1286" y="228" text-anchor="middle" class="bar">FP32 reduce; final block -&gt; E8..E11</text>
    <rect x="1204" y="257" width="361" height="32" rx="4" class="memw"/><text x="1384" y="278" text-anchor="middle" class="bar">FP16 cast + local slices 24..27 write</text>
  </g>

  <g transform="translate(42,1760)">
    <rect x="0" y="0" width="1710" height="42" rx="5" class="phase"/>
    <text x="16" y="27" class="note">All intervals come from target constraints: MEM slice conflicts, transport latency, 16-stream IW load, MXM pipeline skew, accumulators, and cross-hemisphere copy.</text>
  </g>
</svg>
